# xmcd
#
# Track frame offsets: 
#        183
#        18235
#        42575
#        62175
#        82413
#        106523
#        125618
#        143230
#        167340
#        191848
#        213205
#        232273
#        255335
#        275468
#        299458
#
# Disc length: 4242 seconds
#
# Revision: 4
# Processed by: cddbd v1.5.2PL0 Copyright (c) Steve Scherf et al.
# Submitted via: ExactAudioCopyFreeDBPlugin 1.0
#
DISCID=df10900f
DTITLE=Various Artist - ClubHits '89 Volume 2
DYEAR=1989
DGENRE=Funk
TTITLE0=De La Soul - Eye Know
TTITLE1=Alyson Williams - Sleep Talk
TTITLE2=Jody Watley - Real Love
TTITLE3=New Edition - Crucial
TTITLE4=S.O.S. Band - I'm Still Missing Your Love
TTITLE5=Bobby Brown - On Our Own
TTITLE6=Eric And The Good Good Feeling - Good Good Feeling
TTITLE7=The Jacksons - Nothin (That Compares 2 U)
TTITLE8=Chaka Khan - I'm Every Woman ('89 Remix)
TTITLE9=Adeva and Paul Simpson - Musical Freedom
TTITLE10=James Ingram - It's Real
TTITLE11=Joe Smooth - Promised Land
TTITLE12=Ten City - That's The Way Love Is
TTITLE13=Technotronic - Pump Up The Jam
TTITLE14=Ben Liebrand - Dance Classics "The Mix"
EXTD=
EXTT0=
EXTT1=
EXTT2=
EXTT3=
EXTT4=
EXTT5=
EXTT6=
EXTT7=
EXTT8=
EXTT9=
EXTT10=
EXTT11=
EXTT12=
EXTT13=
EXTT14=
PLAYORDER=
